<mxfile host="app.diagrams.net" modified="2021-03-21T14:13:07.101Z" agent="5.0 (Macintosh; Intel Mac OS X 11_2_1) AppleWebKit/537.36 (KHTML, like Gecko) Chrome/88.0.4324.192 Safari/537.36" etag="BOusB57rb4O89cX3jbM2" version="14.4.9" type="github">
  <diagram id="QSCsBoBHIRKWqrGeN758" name="第 1 页">
    <mxGraphModel dx="1406" dy="669" grid="0" gridSize="10" guides="1" tooltips="1" connect="1" arrows="1" fold="1" page="1" pageScale="1" pageWidth="1169" pageHeight="827" background="#DAD2D8" math="0" shadow="0">
      <root>
        <mxCell id="0" />
        <mxCell id="1" parent="0" />
        <mxCell id="Ymab6s5Fj6hapWL2f808-1" value="" style="whiteSpace=wrap;html=1;fillColor=#FAE5C7;strokeColor=#0F8B8D;fontColor=#143642;sketch=1;rounded=1;" vertex="1" parent="1">
          <mxGeometry x="350" y="100" width="120" height="60" as="geometry" />
        </mxCell>
        <mxCell id="Ymab6s5Fj6hapWL2f808-2" value="" style="whiteSpace=wrap;html=1;aspect=fixed;fillColor=#FAE5C7;strokeColor=#0F8B8D;fontColor=#143642;sketch=1;rounded=1;" vertex="1" parent="1">
          <mxGeometry x="370" y="210" width="80" height="80" as="geometry" />
        </mxCell>
        <mxCell id="Ymab6s5Fj6hapWL2f808-3" value="" style="shape=hexagon;perimeter=hexagonPerimeter2;whiteSpace=wrap;html=1;fixedSize=1;fillColor=#FAE5C7;strokeColor=#0F8B8D;fontColor=#143642;sketch=1;rounded=1;" vertex="1" parent="1">
          <mxGeometry x="350" y="334" width="120" height="80" as="geometry" />
        </mxCell>
      </root>
    </mxGraphModel>
  </diagram>
</mxfile>
